<svg xmlns="http://www.w3.org/2000/svg" width="177.5" height="323.5" preserveAspectRatio="none" viewBox="0 0 177.5 323.5"><metadata><rdf:RDF xmlns:rdf="http://www.w3.org/1999/02/22-rdf-syntax-ns#"><rdf:Description><schema:license xmlns:schema="http://schema.org/">s3://biorender-tasks-prod/copyright.svg</schema:license></rdf:Description></rdf:RDF></metadata><title>ATPase</title><g id="artboardLabels-hidden"><rect x="95.5" y="3.5" width="23" height="99" rx="10" ry="10" fill="#425e8f" stroke="#334b78" stroke-miterlimit="10"/><rect x="74.5" y="5.5" width="23" height="99" rx="10" ry="10" fill="#425e8f" stroke="#334b78" stroke-miterlimit="10"/><rect x="58.5" y="10.5" width="23" height="99" rx="10" ry="10" fill="#425e8f" stroke="#334b78" stroke-miterlimit="10"/><rect x="51.5" y="17.5" width="23" height="99" rx="10" ry="10" fill="#5571a8" stroke="#425e8f" stroke-miterlimit="10"/><rect x="115.5" y="5.5" width="23" height="99" rx="10" ry="10" transform="translate(254 110) rotate(180)" fill="#425e8f" stroke="#334b78" stroke-miterlimit="10"/><rect x="132.5" y="10.5" width="23" height="99" rx="10" ry="10" transform="translate(288 120) rotate(180)" fill="#425e8f" stroke="#334b78" stroke-miterlimit="10"/><rect x="139.5" y="17.5" width="23" height="99" rx="10" ry="10" transform="translate(302 134) rotate(180)" fill="#5571a8" stroke="#425e8f" stroke-miterlimit="10"/><ellipse cx="134.5" cy="146.5" rx="13" ry="18" transform="translate(-19.5 20.6) rotate(-8.2)" fill="#706fad" stroke="#6c60a6" stroke-miterlimit="10"/><ellipse cx="131" cy="142.5" rx="3.5" ry="5" transform="translate(-29.4 34.1) rotate(-13.4)" fill="#7a79bd"/><ellipse cx="105" cy="237.7" rx="36.5" ry="49.7" fill="#72488a" stroke="#72488a" stroke-miterlimit="10" stroke-width="0.82"/><ellipse cx="73" cy="248.3" rx="36.5" ry="49.7" fill="#936aab" stroke="#72488a" stroke-miterlimit="10" stroke-width="0.82"/><ellipse cx="137" cy="248.3" rx="36.5" ry="49.7" fill="#936aab" stroke="#72488a" stroke-miterlimit="10" stroke-width="0.82"/><rect x="90" y="109" width="34" height="160" rx="17" ry="17" fill="#50487a"/><rect x="100" y="128.9" width="5" height="117.96" rx="2.5" ry="2.5" fill="#5b528a"/><ellipse cx="76.3" cy="262.3" rx="36.5" ry="49.7" fill="#a680ba" stroke="#936aab" stroke-miterlimit="10" stroke-width="0.82"/><ellipse cx="133.7" cy="262.3" rx="36.5" ry="49.7" fill="#a680ba" stroke="#936aab" stroke-miterlimit="10" stroke-width="0.82"/><ellipse cx="105" cy="271.3" rx="36.5" ry="49.7" fill="#b090c2" stroke="#936aab" stroke-miterlimit="10" stroke-width="0.82"/><rect x="54.5" y="28.5" width="23" height="99" rx="10" ry="10" fill="#5571a8" stroke="#425e8f" stroke-miterlimit="10"/><rect x="62.5" y="33.5" width="23" height="99" rx="10" ry="10" fill="#5d7dba" stroke="#425e8f" stroke-miterlimit="10"/><rect x="76.5" y="37.5" width="23" height="99" rx="10" ry="10" fill="#5d7dba" stroke="#425e8f" stroke-miterlimit="10"/><rect x="136.5" y="28.5" width="23" height="99" rx="10" ry="10" transform="translate(296 156) rotate(180)" fill="#5571a8" stroke="#425e8f" stroke-miterlimit="10"/><rect x="128.5" y="35.5" width="23" height="99" rx="10" ry="10" transform="translate(280 170) rotate(180)" fill="#5d7dba" stroke="#425e8f" stroke-miterlimit="10"/><rect x="114.5" y="37.5" width="23" height="99" rx="10" ry="10" transform="translate(252 174) rotate(180)" fill="#5d7dba" stroke="#425e8f" stroke-miterlimit="10"/><rect x="95.5" y="38.5" width="23" height="99" rx="10" ry="10" fill="#6587c9" stroke="#425e8f" stroke-miterlimit="10"/><path d="M20.3,271a7.5,7.5,0,0,1-6.2-3.2c-.9-1.4-23.1-34.1-.9-100.5A352.8,352.8,0,0,0,29.4,94.6c1.9-17.4,1.2-27.5,1.2-27.6a7.5,7.5,0,0,1,15-1c.1,1.7,2.7,43.5-18.2,106.1-19.8,59.3-1.2,86.8-1,87.1a7.4,7.4,0,0,1-1.8,10.4A6.9,6.9,0,0,1,20.3,271Z" fill="#5f74a7" stroke="#2c4d9e" stroke-miterlimit="10" stroke-width="0.94"/><rect x="7.5" y="248.3" width="34.5" height="45.64" rx="17.2" ry="17.2" transform="translate(-132.8 49.1) rotate(-30.1)" fill="#cc9dc3" stroke="#c785be" stroke-miterlimit="10" stroke-width="0.75"/><rect x="11" y="260.8" width="6.9" height="13.25" rx="3.4" ry="3.4" transform="translate(-132.3 43.4) rotate(-30.1)" fill="#dbafd3"/><rect x="30.5" y="21.5" width="20" height="107" rx="10" ry="10" fill="#9b8fcc" stroke="#8477ba" stroke-miterlimit="10" stroke-width="0.88"/><rect x="34" y="31.9" width="4" height="31.07" rx="1.6" ry="1.6" fill="#b7a9e8"/><path d="M29.3,278a7.5,7.5,0,0,1-6.2-3.2c-.9-1.4-23.1-34.1-.9-100.5a352.8,352.8,0,0,0,16.2-72.7c1.9-17.4,1.2-27.5,1.2-27.6a7.5,7.5,0,0,1,15-1c.1,1.7,2.7,43.5-18.2,106.1-19.8,59.3-1.2,86.8-1,87.1a7.4,7.4,0,0,1-1.8,10.4A6.9,6.9,0,0,1,29.3,278Z" fill="#7a8fc2" stroke="#3f5da7" stroke-miterlimit="10" stroke-width="0.94"/></g></svg>